<svg width="16" height="16" viewBox="0 0 16 16" fill="none" xmlns="http://www.w3.org/2000/svg">
<g clip-path="url(#clip0_2_12420)">
<path d="M7.77354 0.0517407L0.608881 3.51055C0.519038 3.55393 0.461975 3.64487 0.461975 3.74462V12.2555C0.461975 12.3552 0.519069 12.4462 0.608881 12.4896L7.77354 15.9484C7.91632 16.0173 8.08276 16.0173 8.22554 15.9484L15.3902 12.4896C15.48 12.4462 15.5371 12.3552 15.5371 12.2555V3.74462C15.5371 3.64487 15.48 3.55393 15.3902 3.51055L8.22554 0.0517407C8.08276 -0.0171655 7.91632 -0.0171655 7.77354 0.0517407Z" fill="#FFE17D"/>
<path d="M0.505194 3.60248C0.477881 3.64407 0.461975 3.69304 0.461975 3.74476V12.2556C0.461975 12.3554 0.519069 12.4463 0.608881 12.4897L7.77354 15.9485C7.84491 15.9829 7.92222 16.0002 7.99954 16.0002V7.22045L0.505194 3.60248Z" fill="#FFC350"/>
<path d="M15.4944 3.60254C15.5217 3.64413 15.5377 3.6931 15.5377 3.74482V12.2557C15.5377 12.3554 15.4806 12.4464 15.3907 12.4898L8.22609 15.9485C8.15472 15.983 8.0774 16.0003 8.00009 16.0003V7.22051L15.4944 3.60254Z" fill="#FFD164"/>
<path d="M2.60597 11.8021C2.56816 11.8021 2.52956 11.7937 2.49328 11.7762L1.38713 11.2422C1.25769 11.1798 1.20363 11.0244 1.26606 10.8952C1.32825 10.766 1.48409 10.7122 1.61303 10.7742L2.71919 11.3082C2.84863 11.3707 2.90269 11.526 2.84025 11.6552C2.79559 11.748 2.70269 11.8021 2.60597 11.8021Z" fill="#FFE17D"/>
<path d="M3.62408 11.1387C3.58626 11.1387 3.54767 11.1303 3.51139 11.1128L1.38864 10.0881C1.25945 10.0257 1.20514 9.87032 1.26758 9.74113C1.32976 9.61219 1.48586 9.55813 1.61455 9.62007L3.73726 10.6448C3.86645 10.7072 3.92076 10.8625 3.85833 10.9917C3.8137 11.0846 3.7208 11.1387 3.62408 11.1387Z" fill="#FFF6D8"/>
<path d="M12.9553 4.8245L5.43459 1.19128L3.45209 2.15222L10.9896 5.79107L12.9553 4.8245Z" fill="#FF8087"/>
<path d="M10.9887 5.79051V8.60948C10.9887 8.70529 11.0888 8.76816 11.1751 8.72651L12.8074 7.93854C12.8972 7.89516 12.9543 7.80422 12.9543 7.70447V4.82397L10.9887 5.79051Z" fill="#E6646E"/>
</g>
<defs>
<clipPath id="clip0_2_12420">
<rect width="16" height="16" fill="white"/>
</clipPath>
</defs>
</svg>
