<svg width="15" height="16" viewBox="0 0 15 16" fill="none" xmlns="http://www.w3.org/2000/svg">
<path fill-rule="evenodd" clip-rule="evenodd" d="M7.35535 0.0656867L2.37904 2.93875C2.22753 3.02625 2.1408 3.17645 2.1408 3.35139V9.09755C2.1408 9.27251 2.22753 9.42272 2.37904 9.51018L7.35535 12.3832C7.50689 12.4707 7.68029 12.4707 7.83183 12.3832L12.8081 9.51018C12.9597 9.42272 13.0464 9.27248 13.0464 9.09755V3.35139C13.0464 3.17645 12.9597 3.02622 12.8081 2.93875L7.83183 0.0656867C7.68029 -0.0218142 7.50686 -0.0218142 7.35535 0.0656867Z" fill="#F2D1A5"/>
<path fill-rule="evenodd" clip-rule="evenodd" d="M7.35517 0.0656617L2.37885 2.93872C2.30309 2.98246 2.24355 3.04189 2.20292 3.11226L7.59341 6.22446L12.9839 3.11226C12.9433 3.04189 12.8837 2.98246 12.808 2.93872L7.83164 0.0656617C7.68011 -0.0218059 7.50667 -0.0218059 7.35517 0.0656617Z" fill="#E3A76F"/>
<path fill-rule="evenodd" clip-rule="evenodd" d="M2.20294 3.11243C2.16234 3.18279 2.14064 3.26406 2.14064 3.35153V9.09769C2.14064 9.27262 2.22737 9.42286 2.37888 9.51033L7.35519 12.3834C7.43096 12.4271 7.5122 12.449 7.59343 12.449V6.22463L2.20294 3.11243Z" fill="#ECBA78"/>
<path fill-rule="evenodd" clip-rule="evenodd" d="M11.1109 4.19394L9.52962 5.10692L4.07683 1.95875L5.65814 1.04578L11.1109 4.19394Z" fill="#C48958"/>
<path fill-rule="evenodd" clip-rule="evenodd" d="M9.88602 7.38082L10.8717 6.81175C11.0232 6.72428 11.1099 6.57405 11.1099 6.39911V4.19482L9.52862 5.1078V7.17452C9.52862 7.26199 9.57198 7.33709 9.64775 7.38082C9.72352 7.42459 9.81025 7.42456 9.88602 7.38082Z" fill="#E3A76F"/>
<path fill-rule="evenodd" clip-rule="evenodd" d="M9.98911 15.3954C7.44595 16.3374 4.75955 16.1416 2.48833 15.0649L2.28939 15.7029C2.26766 15.7726 2.18176 15.7963 2.12729 15.7477C1.25172 14.9652 0.0930049 13.3702 0.00043732 11.953C-0.00772943 11.8281 0.118539 11.7394 0.233306 11.7894C1.03071 12.1366 2.15023 12.2803 3.21827 12.291C3.28564 12.2917 3.33281 12.3564 3.31274 12.4208L3.0684 13.2044C5.47019 14.4064 8.52023 14.4713 11.1057 13.5135C12.3956 13.0357 13.5333 12.3453 14.4812 11.5112C14.5971 11.4091 14.7658 11.5565 14.6803 11.685C13.5877 13.3303 11.9829 14.6568 9.98911 15.3954Z" fill="#27C32D"/>
<path fill-rule="evenodd" clip-rule="evenodd" d="M9.98888 15.3953C7.44572 16.3373 4.75933 16.1415 2.48811 15.0648L2.28917 15.7028C2.26744 15.7725 2.18154 15.7962 2.12707 15.7476C1.99927 15.6334 1.86547 15.5018 1.7298 15.3561C1.75123 15.3759 1.7726 15.3954 1.7937 15.4143C1.84817 15.4629 1.93403 15.4391 1.95577 15.3694L2.1547 14.7315C4.42592 15.8082 7.11232 16.004 9.65548 15.0619C11.3759 14.4247 12.8066 13.3495 13.8686 12.0097C14.0806 11.8501 14.2848 11.6837 14.4809 11.5111C14.5968 11.4091 14.7655 11.5564 14.6801 11.685C13.5875 13.3302 11.9827 14.6567 9.98888 15.3953ZM2.91774 12.2844L2.68667 13.0255C2.81211 13.0882 2.93941 13.1477 3.06821 13.2043L3.31255 12.4207C3.33258 12.3564 3.28541 12.2916 3.21808 12.2909C3.11831 12.2899 3.01811 12.2878 2.91774 12.2844Z" fill="#32BD6A"/>
</svg>
