<svg width="16" height="16" viewBox="0 0 16 16" fill="none" xmlns="http://www.w3.org/2000/svg">
<g clip-path="url(#clip0_2_12464)">
<path d="M0.750076 4.25012V11.2501C0.750076 11.3164 0.776415 11.38 0.8233 11.4269C0.870184 11.4738 0.933772 11.5001 1.00008 11.5001H15.0001C15.0664 11.5001 15.13 11.4738 15.1769 11.4269C15.2237 11.38 15.2501 11.3164 15.2501 11.2501V8.76987C15.2501 8.6172 15.2035 8.46816 15.1165 8.34267C15.0296 8.21719 14.9064 8.12123 14.7634 8.06762L13.2501 7.50012L11.7622 4.09931C11.6843 3.92118 11.5561 3.76964 11.3934 3.66322C11.2307 3.5568 11.0405 3.50012 10.8461 3.50012H1.50008C1.30116 3.50012 1.1104 3.57914 0.969746 3.71979C0.829094 3.86044 0.750076 4.05121 0.750076 4.25012Z" fill="#FFB431"/>
<path d="M14.9999 11.5001H0.999893C0.933589 11.5001 0.870001 11.4737 0.823116 11.4268C0.776232 11.38 0.749893 11.3164 0.749893 11.2501V10.2501H15.2499V11.2501C15.2499 11.3164 15.2236 11.38 15.1767 11.4268C15.1298 11.4737 15.0662 11.5001 14.9999 11.5001Z" fill="#415E89"/>
<path d="M9.74989 4.75006V7.25006C9.74989 7.31637 9.77623 7.37995 9.82312 7.42684C9.87 7.47372 9.93359 7.50006 9.99989 7.50006H13.2499L11.9374 4.50006H9.99989C9.93359 4.50006 9.87 4.5264 9.82312 4.57328C9.77623 4.62017 9.74989 4.68376 9.74989 4.75006Z" fill="#4DB6E4"/>
<path d="M15.2499 10.2501H14.2499C14.1836 10.2501 14.12 10.2237 14.0731 10.1768C14.0262 10.13 13.9999 10.0664 13.9999 10.0001V9.50006C13.9999 9.43376 14.0262 9.37017 14.0731 9.32328C14.12 9.2764 14.1836 9.25006 14.2499 9.25006H15.2499V10.2501Z" fill="#DFDFDD"/>
<path d="M1.50033 4.25037H9.00033V4.75037H1.50033V4.25037Z" fill="#F9A40F"/>
<path d="M1.50033 7.24982H9.00033V7.74982H1.50033V7.24982Z" fill="#F9A40F"/>
<path d="M10.9993 4.49994H11.4993V7.49994H10.9993V4.49994Z" fill="#3BA5D3"/>
<path d="M11.7506 12.4998C12.5791 12.4998 13.2506 11.8282 13.2506 10.9998C13.2506 10.1713 12.5791 9.49976 11.7506 9.49976C10.9222 9.49976 10.2506 10.1713 10.2506 10.9998C10.2506 11.8282 10.9222 12.4998 11.7506 12.4998Z" fill="#34507B"/>
<path d="M3.74902 12.4998C4.57745 12.4998 5.24902 11.8282 5.24902 10.9998C5.24902 10.1713 4.57745 9.49976 3.74902 9.49976C2.9206 9.49976 2.24902 10.1713 2.24902 10.9998C2.24902 11.8282 2.9206 12.4998 3.74902 12.4998Z" fill="#34507B"/>
<path d="M11.7489 11.5004C12.025 11.5004 12.2489 11.2765 12.2489 11.0004C12.2489 10.7242 12.025 10.5004 11.7489 10.5004C11.4728 10.5004 11.2489 10.7242 11.2489 11.0004C11.2489 11.2765 11.4728 11.5004 11.7489 11.5004Z" fill="#DFDFDD"/>
<path d="M3.75039 11.5004C4.02653 11.5004 4.25039 11.2765 4.25039 11.0004C4.25039 10.7242 4.02653 10.5004 3.75039 10.5004C3.47425 10.5004 3.25039 10.7242 3.25039 11.0004C3.25039 11.2765 3.47425 11.5004 3.75039 11.5004Z" fill="#DFDFDD"/>
<path d="M9.74995 8.25043H10.75V8.75043H9.74995V8.25043Z" fill="#FFC261"/>
<path d="M7.99989 8.25043H8.99989V8.75043H7.99989V8.25043Z" fill="#FFC261"/>
<path d="M1.49989 10.2501H0.749893V9.25006H1.49989C1.5662 9.25006 1.62979 9.2764 1.67667 9.32328C1.72355 9.37017 1.74989 9.43376 1.74989 9.50006V10.0001C1.74989 10.0664 1.72355 10.13 1.67667 10.1768C1.62979 10.2237 1.5662 10.2501 1.49989 10.2501Z" fill="#D65246"/>
</g>
<defs>
<clipPath id="clip0_2_12464">
<rect width="16" height="16" fill="white"/>
</clipPath>
</defs>
</svg>
