<svg width="16" height="16" viewBox="0 0 16 16" fill="none" xmlns="http://www.w3.org/2000/svg">
<g clip-path="url(#clip0_2_12455)">
<path d="M8.00043 6.10352e-05C5.54218 2.58331 1.45868 2.00006 1.45868 2.00006V9.00006C1.45868 13.1251 8.00043 16.0001 8.00043 16.0001C8.00043 16.0001 14.5422 13.1251 14.5422 9.00006V2.00006C14.5422 2.00006 10.4587 2.58331 8.00043 6.10352e-05Z" fill="#FFB431"/>
<path d="M8.00054 2.30273C6.25054 4.14248 3.34204 3.72773 3.34204 3.72773V8.71273C3.34204 11.65 8.00054 13.6972 8.00054 13.6972C8.00054 13.6972 12.6593 11.6497 12.6593 8.71223V3.72723C12.6593 3.72723 9.75054 4.14248 8.00054 2.30273Z" fill="#4DB6E4"/>
<path d="M7.54222 10.5491L5.12622 8.53064L5.76722 7.76314L7.35022 9.08589L9.94397 5.40839L10.7615 5.98464L7.54222 10.5491Z" fill="#F1F2F8"/>
</g>
<defs>
<clipPath id="clip0_2_12455">
<rect width="16" height="16" fill="white"/>
</clipPath>
</defs>
</svg>
