<svg width="16" height="16" viewBox="0 0 16 16" fill="none" xmlns="http://www.w3.org/2000/svg">
<path d="M12.6665 4.00012H3.33313C2.22856 4.00012 1.33313 4.89555 1.33313 6.00012V12.6668C1.33313 13.7714 2.22856 14.6668 3.33313 14.6668H12.6665C13.771 14.6668 14.6665 13.7714 14.6665 12.6668V6.00012C14.6665 4.89555 13.771 4.00012 12.6665 4.00012Z" fill="#FCBF49"/>
<path d="M1.33313 6.16711H14.6665V7.16711H1.33313V6.16711Z" fill="#E89236"/>
<path d="M5.33349 10.4998H4.00015C3.72682 10.4998 3.50015 10.2732 3.50015 9.99982C3.50015 9.72648 3.72682 9.49982 4.00015 9.49982H5.33349C5.60682 9.49982 5.83349 9.72648 5.83349 9.99982C5.83349 10.2732 5.60682 10.4998 5.33349 10.4998Z" fill="#EDEBEA"/>
<path d="M8.00009 12.5001H4.00009C3.72676 12.5001 3.50009 12.2735 3.50009 12.0001C3.50009 11.7268 3.72676 11.5001 4.00009 11.5001H8.00009C8.27343 11.5001 8.50009 11.7268 8.50009 12.0001C8.50009 12.2735 8.27343 12.5001 8.00009 12.5001Z" fill="#EDEBEA"/>
<path d="M14.0402 1.97313C14.4069 2.05313 14.6669 2.3798 14.6669 2.75313V4.38646C14.6669 6.55313 13.3402 8.48646 11.3469 9.2798C11.1669 9.35313 10.9669 9.35313 10.7869 9.2798C8.79352 8.48646 7.46686 6.55313 7.46686 4.38646V2.75313C7.46686 2.3798 7.72686 2.05313 8.09352 1.97313L10.8935 1.35313C11.0069 1.32646 11.1269 1.32646 11.2402 1.35313L14.0402 1.97313Z" fill="#20BF55"/>
<path d="M10.9064 6.26699C10.7797 6.26699 10.653 6.22032 10.553 6.12032L9.75969 5.34032C9.56636 5.14699 9.55969 4.82699 9.75969 4.63365C9.95303 4.43365 10.273 4.43365 10.4664 4.63365L10.9064 5.06699L12.0397 3.95365C12.233 3.76032 12.553 3.76032 12.7464 3.95365C12.9397 4.15365 12.9397 4.46699 12.7464 4.66032L11.2664 6.12032C11.1664 6.21366 11.0397 6.26699 10.913 6.26699H10.9064Z" fill="#EDEBEA"/>
</svg>
