<svg width="16" height="17" viewBox="0 0 16 17" fill="none" xmlns="http://www.w3.org/2000/svg">
<path d="M8 8.5L14.75 8.5M8 1.75L8 15.25M4.85 1.75H11.15C12.4101 1.75 13.0402 1.75 13.5215 1.99524C13.9448 2.21095 14.289 2.55516 14.5048 2.97852C14.75 3.45982 14.75 4.08988 14.75 5.35V11.65C14.75 12.9101 14.75 13.5402 14.5048 14.0215C14.289 14.4448 13.9448 14.789 13.5215 15.0048C13.0402 15.25 12.4101 15.25 11.15 15.25H4.85C3.58988 15.25 2.95982 15.25 2.47852 15.0048C2.05516 14.789 1.71095 14.4448 1.49524 14.0215C1.25 13.5402 1.25 12.9101 1.25 11.65V5.35C1.25 4.08988 1.25 3.45982 1.49524 2.97852C1.71095 2.55516 2.05516 2.21095 2.47852 1.99524C2.95982 1.75 3.58988 1.75 4.85 1.75Z" stroke="black" stroke-width="2" stroke-linecap="round" stroke-linejoin="round"/>
</svg>
